<svg width="40" height="40" viewBox="0 0 40 40" fill="none" xmlns="http://www.w3.org/2000/svg">
<g clip-path="url(#clip0_5_1558)">
<rect width="40" height="40" rx="4" fill="#1F2038"/>
<path d="M12.2411 15.758C12.5333 16.0561 12.9905 16.0832 13.3127 15.8393L13.405 15.758L20 9.03049L26.595 15.758C26.8872 16.0561 27.3444 16.0832 27.6666 15.8393L27.7589 15.758C28.0511 15.4599 28.0777 14.9935 27.8386 14.6649L27.7589 14.5707L20.582 7.24981C20.2898 6.95175 19.8325 6.92465 19.5103 7.16852L19.418 7.24981L12.2411 14.5707C11.9196 14.8986 11.9196 15.4301 12.2411 15.758Z" fill="#FFD400"/>
<path d="M12.2411 24.758C12.5333 25.0561 12.9905 25.0832 13.3127 24.8393L13.405 24.758L20 18.0305L26.595 24.758C26.8872 25.0561 27.3444 25.0832 27.6666 24.8393L27.7589 24.758C28.0511 24.4599 28.0777 23.9935 27.8386 23.6649L27.7589 23.5707L20.582 16.2498C20.2898 15.9517 19.8325 15.9246 19.5103 16.1685L19.418 16.2498L12.2411 23.5707C11.9196 23.8986 11.9196 24.4301 12.2411 24.758Z" fill="#FFD400"/>
<path d="M12.2411 32.758C12.5333 33.0561 12.9905 33.0832 13.3127 32.8393L13.405 32.758L20 26.0305L26.595 32.758C26.8872 33.0561 27.3444 33.0832 27.6666 32.8393L27.7589 32.758C28.0511 32.4599 28.0777 31.9935 27.8386 31.6649L27.7589 31.5707L20.582 24.2498C20.2898 23.9517 19.8325 23.9246 19.5103 24.1685L19.418 24.2498L12.2411 31.5707C11.9196 31.8986 11.9196 32.4301 12.2411 32.758Z" fill="#FFD400"/>
</g>
<defs>
<clipPath id="clip0_5_1558">
<rect width="40" height="40" rx="4" fill="white"/>
</clipPath>
</defs>
</svg>
